<svg xmlns="http://www.w3.org/2000/svg" version="1.1" xmlns:xlink="http://www.w3.org/1999/xlink" xmlns:svgjs="http://svgjs.dev/svgjs" viewBox="0 0 800 800"><defs><linearGradient x1="50%" y1="0%" x2="50%" y2="100%" id="uundulate-grad"><stop stop-color="hsl(206, 75%, 49%)" stop-opacity="1" offset="45%"></stop><stop stop-color="hsl(331, 90%, 56%)" stop-opacity="1" offset="100%"></stop></linearGradient></defs><g stroke-width="4" stroke="url(#uundulate-grad)" fill="none"><path d="M2308.071095905212 -1435.678917437624C2786.220909870932 -663.4918699647408 1558.2260730342527 1787.7431384307956 919.9122437210253 2433.8511131492332C281.5984144077984 3079.959087867671 -277.6854708325559 2437.8264086837617 -755.8352847982751 1665.6393612108782C-1233.9850987639945 893.4523137379947 -2013.5206926276514 -626.5387400021739 -1375.2068633144243 -1272.6467147206115C-736.8930340011971 -1918.7546894390491 1829.9212819394934 -2207.8659649105075 2308.071095905212 -1435.678917437624C2786.220909870932 -663.4918699647408 1558.2260730342527 1787.7431384307956 919.9122437210253 2433.8511131492332 "></path><path d="M2277.7841058536414 -1406.5410347730635C2748.3442402326036 -646.6109245616547 1539.8413849330145 1765.7155916371275 911.6595211644412 2401.5678842171765C283.47765739586885 3037.420176797227 -266.92870585654305 2405.480079822586 -737.4888402355048 1645.549969611177C-1208.0489746144667 885.6198593997678 -1975.2109876231452 -610.2443522175411 -1347.0291238545722 -1246.0966447975907C-718.8472600859993 -1881.9489373776405 1807.2239714746802 -2166.4711449844726 2277.7841058536414 -1406.5410347730635C2748.3442402326036 -646.6109245616547 1539.8413849330145 1765.7155916371275 911.6595211644412 2401.5678842171765 "></path><path d="M2247.4972683899614 -1377.403152108503C2710.467723182166 -629.7299791585685 1521.456849419667 1743.6880448434586 903.4069511957487 2369.2846552851206C285.35705297182994 2994.8812657267827 -256.1717882926396 2373.1337509614095 -719.142243084844 1625.4605780114757C-1182.1126978770485 877.7874050615405 -1936.9011300307482 -593.9499644329085 -1318.8512318068297 -1219.5465748745703C-700.801333582911 -1845.1431853162321 1784.5268135977572 -2125.0763250584378 2247.4972683899614 -1377.403152108503C2710.467723182166 -629.7299791585685 1521.456849419667 1743.6880448434586 903.4069511957487 2369.2846552851206 "></path><path d="M2217.2105224790157 -1348.2655135845675C2672.591297684463 -612.8492778961072 1503.0724054590537 1721.6602539091655 895.1544727797896 2337.0011822124397C287.2365401005254 2952.342110515714 -245.41477917600173 2340.787177959609 -700.7955543814487 1605.3709422711486C-1156.176329586896 869.9547065826882 -1898.5911808856167 -577.6558207889007 -1290.6732482063526 -1192.9967490921747C-682.7553155270884 -1808.3376773954485 1761.829747273569 -2083.681749273028 2217.2105224790157 -1348.2655135845675C2672.591297684463 -612.8492778961072 1503.0724054590537 1721.6602539091655 895.1544727797896 2337.0011822124397 "></path><path d="M2186.923685015335 -1319.127844543054C2634.7147806340254 -595.968546116068 1484.6878699457066 1699.63249349245 886.9019028110965 2304.717739657336C289.1159356764874 2909.8029858222226 -234.6578616120985 2308.4406354753864 -682.448957230788 1585.2813370484005C-1130.2400528494775 862.1220386214145 -1860.2813232932199 -561.3616466273149 -1262.49535615861 -1166.4468927922007C-664.7093890240003 -1771.532138957087 1739.132589396646 -2042.2871429700401 2186.923685015335 -1319.127844543054C2634.7147806340254 -595.968546116068 1484.6878699457066 1699.63249349245 886.9019028110965 2304.717739657336 "></path><path d="M2156.636847551655 -1289.9902060191184C2596.838263583588 -579.0878448536068 1466.303334432359 1677.604702558157 878.6493328424035 2272.4342665846543C290.9953312524485 2867.263830611153 -223.9009440481948 2276.094062473586 -664.102360080127 1565.1917013080742C-1104.303776112059 854.2893401425627 -1821.9714657008228 -545.0675029833071 -1234.3174641108676 -1139.8970670098051C-646.6634625209122 -1734.7266310363034 1716.4354315197234 -2000.8925671846303 2156.636847551655 -1289.9902060191184C2596.838263583588 -579.0878448536068 1466.303334432359 1677.604702558157 878.6493328424035 2272.4342665846543 "></path><path d="M2126.349857500084 -1260.852323354558C2558.9615939452588 -562.2068994505207 1447.9186463311207 1655.5771557644885 870.3966102858199 2240.1510376525985C292.874574240519 2824.7249195407094 -213.14417907218217 2243.7477336124102 -645.7559155173567 1545.1023097083726C-1078.3676519625315 846.4568858043353 -1783.6617606963164 -528.7731151986743 -1206.1397246510155 -1113.3469970867845C-628.6176886057146 -1697.920878974895 1693.7381210549097 -1959.4977472585954 2126.349857500084 -1260.852323354558C2558.9615939452588 -562.2068994505207 1447.9186463311207 1655.5771557644885 870.3966102858199 2240.1510376525985 "></path><path d="M2096.063020036404 -1231.7144406899974C2521.085076894822 -545.3259540474344 1429.5341108177731 1633.5496089708204 862.1440403171268 2207.8678087205426C294.7539698164801 2782.186008470265 -202.3872615082787 2211.4014047512337 -627.409318366696 1525.0129181086713C-1052.4313752251132 838.6244314661085 -1745.3519031039195 -512.4787274140415 -1177.9618326032728 -1086.796927163764C-610.5717621026265 -1661.1151269134864 1671.0409631779871 -1918.1029273325605 2096.063020036404 -1231.7144406899974C2521.085076894822 -545.3259540474344 1429.5341108177731 1633.5496089708204 862.1440403171268 2207.8678087205426 "></path><path d="M2065.7761825727243 -1202.5767716484838C2483.2085598443846 -528.4452222673954 1411.1495753044255 1611.5218485541045 853.8914703484334 2175.584366165439C296.63336539244165 2739.6468837767734 -191.63034394437545 2179.0548622670112 -609.062721216035 1504.9233128859223C-1026.4950984876948 830.7917635048343 -1707.0420455115225 -496.184553252456 -1149.7839405555303 -1060.2470708637902C-592.5258355995384 -1624.3095884751247 1648.3438053010645 -1876.7083210295725 2065.7761825727243 -1202.5767716484838C2483.2085598443846 -528.4452222673954 1411.1495753044255 1611.5218485541045 853.8914703484334 2175.584366165439 "></path><path d="M2035.4893145914662 -1173.4390110542358C2445.332012276368 -511.56439893462175 1392.7650092735003 1589.4941796901235 845.6388698621622 2143.30101516307C298.5127304508246 2697.1078506360172 -180.8734568980501 2146.708411335523 -590.7161545829522 1484.8337992159086C-1000.5588522678547 822.9591870962945 -1668.7322184367035 -479.8902875381357 -1121.606079025366 -1033.697123011082C-574.4799396140281 -1587.5039584840288 1625.6466169065634 -1835.3136231738501 2035.4893145914662 -1173.4390110542358C2445.332012276368 -511.56439893462175 1392.7650092735003 1589.4941796901235 845.6388698621622 2143.30101516307 "></path><path d="M2005.2026297156763 -1144.3012504599878C2407.455647813821 -494.6835756018479 1374.3806263480433 1567.466510826143 837.3864524813598 2111.0176641607013C300.39227861467657 2654.56881749526 -170.116386746256 2114.361960404035 -572.3694048444008 1464.7442855458949C-974.6224229425457 815.1266106877547 -1630.4222082564158 -463.5960218238156 -1093.4280343897326 -1007.1471751583741C-556.4338605230494 -1550.6983284929327 1602.9496116175314 -1793.918925318128 2005.2026297156763 -1144.3012504599878C2407.455647813821 -494.6835756018479 1374.3806263480433 1567.466510826143 837.3864524813598 2111.0176641607013 "></path><path d="M1974.915761734418 -1115.1634898657398C2369.579100245805 -477.80275226907406 1355.9960603171176 1545.4388419621619 829.1338519950887 2078.734313158333C302.27164367305977 2612.029784354504 -159.35949969993067 2082.0155094725465 -554.0228382113182 1444.6547718758811C-948.6861767227056 807.2940342792153 -1592.112381181597 -447.3017561094953 -1065.250172859568 -980.597227305666C-538.3879645375391 -1513.8926985018365 1580.2524232230303 -1752.5242274624056 1974.915761734418 -1115.1634898657398C2369.579100245805 -477.80275226907406 1355.9960603171176 1545.4388419621619 829.1338519950887 2078.734313158333 "></path><path d="M1944.6289242707376 -1086.0257292714919C2331.7025831953674 -460.9219289363007 1337.61152480377 1523.4111730981813 820.8812820263956 2046.4509621559641C304.1510392490211 2569.490751213747 -148.60258213602742 2049.669058541058 -535.676241060657 1424.5652582058674C-922.7498999852871 799.4614578706755 -1553.8025235892 -431.00749039517495 -1037.0722808118255 -954.0472794529578C-520.342038034451 -1477.0870685107407 1557.5552653461077 -1711.1295296066833 1944.6289242707376 -1086.0257292714919C2331.7025831953674 -460.9219289363007 1337.61152480377 1523.4111730981813 820.8812820263956 2046.4509621559641 "></path><path d="M1914.3420868070575 -1056.8879381596657C2293.8260661449303 -444.0410750859487 1319.2269892904224 1501.3835347517788 812.6287120577026 2014.1676416711734C306.0304348249824 2526.951748590568 -137.84566457212372 2017.322638127148 -517.3296439099963 1404.4757750534313C-896.8136232478689 791.6289119797143 -1515.492665996803 -414.7131941632765 -1008.8943887640829 -927.4973010826716C-502.29611153136284 -1440.2814080020664 1534.8581074691847 -1669.7348012333828 1914.3420868070575 -1056.8879381596657C2293.8260661449303 -444.0410750859487 1319.2269892904224 1501.3835347517788 812.6287120577026 2014.1676416711734 "></path><path d="M1884.0552188257993 -1027.7501775654177C2255.949518576914 -427.1602517531751 1300.842423259497 1479.3558658877973 804.3761115714315 1981.8842906688046C307.9097998833654 2484.412715449811 -127.0887775257986 1984.9761871956598 -498.9830772769137 1384.3862613834171C-870.8773770280287 783.796335571175 -1477.182838921984 -398.41892844895665 -980.7165272339184 -900.9473532299635C-484.2502155458528 -1403.4757780109705 1512.160919074684 -1628.3401033776604 1884.0552188257993 -1027.7501775654177C2255.949518576914 -427.1602517531751 1300.842423259497 1479.3558658877973 804.3761115714315 1981.8842906688046 "></path><path d="M1853.7682592918063 -998.6124169711698C2218.072879456164 -410.2794284204015 1282.457765675837 1457.3281970238168 796.1234195324255 1949.6009396664358C309.7890733890142 2441.873682309055 -116.33198203220763 1952.6297362641717 -480.63660219656526 1364.2967477134034C-844.9412223609229 775.9637591626351 -1438.8731033998997 -382.12466273463633 -952.5387572564883 -874.3974053772554C-466.2044111130772 -1366.6701480198744 1489.463639127449 -1586.945405521938 1853.7682592918063 -998.6124169711698C2218.072879456164 -410.2794284204015 1282.457765675837 1457.3281970238168 796.1234195324255 1949.6009396664358 "></path><path d="M1823.4815133808606 -969.4746563769218C2180.1964539584606 -393.39860508762786 1264.0733217152238 1435.3005281598357 787.8709411164668 1917.3175886640674C311.6685605177099 2399.3346491682983 -105.57497291557002 1920.2832853326831 -462.28991349317005 1344.2072340433892C-819.0048540707702 768.1311827540953 -1400.5631542547683 -365.830397020316 -924.3607736560114 -847.8474575245473C-448.15839305725456 -1329.8645180287785 1466.7665728032603 -1545.5507076662157 1823.4815133808606 -969.4746563769218C2180.1964539584606 -393.39860508762786 1264.0733217152238 1435.3005281598357 787.8709411164668 1917.3175886640674 "></path><path d="M1793.1946759171801 -940.3368957826738C2142.319936908023 -376.51778175485424 1245.6887862018762 1413.2728592958547 779.6183711477734 1885.0342376616986C313.54795609367125 2356.7956160275417 -94.81805535166654 1887.936834401195 -443.9433163425092 1324.1177203733755C-793.0685773333519 760.2986063455555 -1362.2532966623712 -349.5361313059957 -896.1828816082689 -821.2975096718391C-430.1124665541663 -1293.0588880376824 1444.0694149263377 -1504.1560098104933 1793.1946759171801 -940.3368957826738C2142.319936908023 -376.51778175485424 1245.6887862018762 1413.2728592958547 779.6183711477734 1885.0342376616986 "></path><path d="M1762.9079605238126 -911.1991046708476C2104.443541927898 -359.6369279045023 1227.304372758841 1391.2452209494522 771.3659232493933 1852.7509171769075C315.42747373994507 2314.256613404363 -84.06101571745057 1855.590413987285 -425.59659712153586 1304.02823722094C-767.132178525621 752.4660604545943 -1323.9433169996619 -333.2418350740975 -868.0048674902137 -794.7475313015528C-412.06641798076566 -1256.2532275290082 1421.3723791197276 -1462.7612814371928 1762.9079605238126 -911.1991046708476C2104.443541927898 -359.6369279045023 1227.304372758841 1391.2452209494522 771.3659232493933 1852.7509171769075 "></path><path d="M1732.6210009898195 -882.0613440765997C2066.566902807148 -342.7561045717289 1208.9197151751814 1369.2175520854717 763.1132312103873 1820.4675661745391C317.3067472455939 2271.7175802636066 -73.3042202238596 1823.243963055797 -407.2501220411874 1283.9387235509257C-741.1960238585152 744.633484046055 -1285.6335814775773 -316.94756935977716 -839.8270975127837 -768.1975834488447C-394.0206135479899 -1219.4475975379123 1398.675099172492 -1421.3665835814704 1732.6210009898195 -882.0613440765997C2066.566902807148 -342.7561045717289 1208.9197151751814 1369.2175520854717 763.1132312103873 1820.4675661745391 "></path><path d="M1702.3341330085618 -852.9237055526642C2028.6903552391318 -325.87540330926754 1190.5351491442557 1347.1897611511781 754.8606307241162 1788.1840931018578C319.18611230397687 2229.1784250525375 -62.547333177534256 1790.8973900539963 -388.9035554081047 1263.8490878105995C-715.2597776386751 736.8007855672031 -1247.3237544027584 -300.6534257157696 -811.6492359826192 -741.647757666449C-375.9747175624799 -1182.6420896171287 1375.977910777991 -1379.9720077960608 1702.3341330085618 -852.9237055526642C2028.6903552391318 -325.87540330926754 1190.5351491442557 1347.1897611511781 754.8606307241162 1788.1840931018578 "></path><path d="M1672.0473260624594 -823.7858228881036C1990.8138687062724 -308.9944579061812 1172.1506441484862 1325.1622143575096 746.6080912730015 1755.900864169802C321.0655383975163 2186.639513982093 -51.79038509605266 1758.5510611928198 -370.5569277398657 1243.7596962108983C-689.3234703836786 728.9683312289758 -1209.0138662927834 -284.35903793113675 -783.4713134172985 -715.0976877434284C-357.9287605418135 -1145.8363375557203 1353.2807834186465 -1338.577187870026 1672.0473260624594 -823.7858228881036C1990.8138687062724 -308.9944579061812 1172.1506441484862 1325.1622143575096 746.6080912730015 1755.900864169802 "></path><path d="M1641.7604580812013 -794.6481843641681C1952.9373211382567 -292.1137566437201 1153.7660781175605 1303.1344234232165 738.3554907867301 1723.6173910971202C322.9449034558995 2144.100358771024 -41.033498049727314 1726.2044881910197 -352.210361106783 1223.6700604705716C-663.3872241638385 721.1356327501235 -1170.7040392179645 -268.06489428712894 -755.293451887134 -688.5478619610328C-339.8828645563035 -1109.0308296349367 1330.5835950241458 -1297.182612084616 1641.7604580812013 -794.6481843641681C1952.9373211382567 -292.1137566437201 1153.7660781175605 1303.1344234232165 738.3554907867301 1723.6173910971202 "></path><path d="M1611.4736206175207 -765.5104237699202C1915.0608040878187 -275.23293331094646 1135.3815426042129 1281.106754559235 730.1029208180369 1691.334040094751C324.82429903186085 2101.5613256302668 -30.27658048582407 1693.858037259531 -333.86376395612206 1203.5805468005574C-637.4509474264202 713.3030563415841 -1132.3941816255674 -251.77062857280907 -727.1155598393914 -661.9979141083247C-321.83693805321525 -1072.2251996438408 1307.8864371472228 -1255.7879142288937 1611.4736206175207 -765.5104237699202C1915.0608040878187 -275.23293331094646 1135.3815426042129 1281.106754559235 730.1029208180369 1691.334040094751 "></path><path d="M1581.1867526362626 -736.3726631756722C1877.184256519803 -258.35210997817285 1116.9969765732876 1259.0790856952544 721.8503203317657 1659.050689092382C326.70366409024405 2059.02229248951 -19.51969343949895 1661.5115863280425 -315.51719732303934 1183.4910331305437C-611.51470120658 705.4704799330439 -1094.0843545507487 -235.47636285848876 -698.9376983092269 -635.4479662556166C-303.79104206770523 -1035.4195696527447 1285.189248752722 -1214.3932163731713 1581.1867526362626 -736.3726631756722C1877.184256519803 -258.35210997817285 1116.9969765732876 1259.0790856952544 721.8503203317657 1659.050689092382 "></path><path d="M1550.8999762077387 -707.2348720638461C1839.3078005045218 -241.4712561278211 1098.6125020950958 1237.0514473488515 713.5978113982289 1626.7673686075918C328.5831207013616 2016.4832898663317 -8.762714840439003 1629.1651659141326 -297.17053913722225 1163.4015499781076C-585.5783634340054 697.6379340420826 -1055.7744359231954 -219.1820666265903 -670.759745226328 -608.8979878853304C-285.74505452946073 -998.6139091440705 1262.4921519109557 -1172.9984879998708 1550.8999762077387 -707.2348720638461C1839.3078005045218 -241.4712561278211 1098.6125020950958 1237.0514473488515 713.5978113982289 1626.7673686075918 "></path><path d="M1520.6130471913239 -678.0969893992856C1801.4311919013498 -224.590310724735 1080.2278750290143 1215.023900555183 705.3451498768015 1594.4841396755355C330.4624247245886 1973.9443787958876 1.994111170729866 1596.818837052957 -278.8240335392958 1143.312158378406C-559.6421782493214 689.8054797038556 -1017.4646698835327 -202.8876788419575 -642.5819447313198 -582.3479179623098C-267.69921957910697 -961.8081570826621 1239.7949024812988 -1131.603668073836 1520.6130471913239 -678.0969893992856C1801.4311919013498 -224.590310724735 1080.2278750290143 1215.023900555183 705.3451498768015 1594.4841396755355 "></path><path d="M1490.3262097276438 -648.95935087535C1763.5546748509119 -207.70960946227387 1061.8433395156667 1192.99610962089 697.0925799081083 1562.2006666028542C332.34182030054967 1931.4052235848185 12.751028734633337 1564.472264051156 -260.47743638863494 1123.2225226380797C-533.7059015119031 681.9727812250037 -979.1548122911357 -186.5935351979499 -614.4040526835772 -555.7980921799142C-249.65329307601883 -925.0026491618785 1217.0977446043753 -1090.2090922884263 1490.3262097276438 -648.95935087535C1763.5546748509119 -207.70960946227387 1061.8433395156667 1192.99610962089 697.0925799081083 1562.2006666028542 "></path><path d="M1460.0393722639637 -619.821590281102C1725.6781578004743 -190.82878612950026 1043.458804002319 1170.9684407569089 688.840009939415 1529.9173156004854C334.221215876511 1888.8661904440619 23.507946298536808 1532.1258131196678 -242.130839237974 1103.133008968066C-507.7696247744848 674.1402048164641 -940.8449546987387 -170.2992694836298 -586.2261606358346 -529.2481443272061C-231.60736657293057 -888.1970191707825 1194.4005867274527 -1048.814394432704 1460.0393722639637 -619.821590281102C1725.6781578004743 -190.82878612950026 1043.458804002319 1170.9684407569089 688.840009939415 1529.9173156004854 "></path><path d="M1429.7525348002837 -590.6837991692759C1687.8016407500368 -173.9479322791483 1025.074268488972 1148.940802410506 680.587439970722 1497.6339951156947C336.1006114524723 1846.3271878208834 34.26486386244005 1499.7793927057573 -223.78424208731315 1083.0435258156303C-481.83334803706646 666.3076589255027 -902.5350971063417 -154.00497325173137 -558.048268588092 -502.69816595691987C-213.56144006984232 -851.3913586621084 1171.7034288505301 -1007.4196660594034 1429.7525348002837 -590.6837991692759C1687.8016407500368 -173.9479322791483 1025.074268488972 1148.940802410506 680.587439970722 1497.6339951156947 "></path><path d="M1399.4658499244938 -561.5460385750279C1649.9252762874899 -157.06710894637467 1006.6898855635147 1126.9131335465254 672.3350225899196 1465.3506441133259C337.9801596163243 1803.7881546801268 45.021934014234375 1467.4329417742692 -205.43749234876168 1062.9540121456162C-455.8969187117575 658.4750825169631 -864.225086926054 -137.71070753741105 -529.8702239524588 -476.14821810421176C-195.51536097886355 -814.5857286710122 1149.0064235614982 -966.024968203681 1399.4658499244938 -561.5460385750279C1649.9252762874899 -157.06710894637467 1006.6898855635147 1126.9131335465254 672.3350225899196 1465.3506441133259 "></path><path d="M1369.178951425657 -532.4082779807799C1612.0486982018956 -140.18628561360106 988.3052890150111 1104.8854646825448 664.0823915860701 1433.0672931109575C339.85949415712935 1761.2491215393702 55.77879054298137 1435.0864908427811 -187.0909562332571 1042.864498475602C-429.96070300949543 650.6425061084233 -825.9152903688133 -121.41644182309085 -501.69239293987243 -449.59827025150355C-177.46949551093167 -777.7800986799164 1126.309204649419 -924.6302703479587 1369.178951425657 -532.4082779807799C1612.0486982018956 -140.18628561360106 988.3052890150111 1104.8854646825448 664.0823915860701 1433.0672931109575 "></path><path d="M1338.8920529268207 -503.27051738653176C1574.1721201163018 -123.30546228082733 969.9206924665073 1082.8577958185638 655.8297605822206 1400.7839421085882C341.7388286979344 1718.7100883986136 66.53564707172848 1402.740039911293 -168.74442011775238 1022.7749848055882C-404.02448730723336 642.8099296998839 -787.6054938115726 -105.12217610877053 -473.5145619272861 -423.04832239879534C-159.42363004299966 -740.9744686888203 1103.61198573734 -883.2355724922363 1338.8920529268207 -503.27051738653176C1574.1721201163018 -123.30546228082733 969.9206924665073 1082.8577958185638 655.8297605822206 1400.7839421085882 "></path><path d="M1308.6052154631407 -474.13275679228377C1536.2956030658643 -106.4246389480536 951.5361569531597 1060.8301269545827 647.5771906135276 1368.5005911062199C343.6182242738955 1676.171055257857 77.29256463563195 1370.3935889798045 -150.39782296709154 1002.6854711355743C-378.08821056981515 634.9773532913441 -749.2956362191755 -88.82791039445033 -445.33666987954354 -396.49837454608735C-141.3777035399114 -704.1688386977243 1080.9148278604173 -841.840874636514 1308.6052154631407 -474.13275679228377C1536.2956030658643 -106.4246389480536 951.5361569531597 1060.8301269545827 647.5771906135276 1368.5005911062199 "></path><path d="M1278.3183779994606 -444.99496568045765C1498.4190860154267 -89.54378509770186 933.1516214398123 1038.80248860818 639.3246206448346 1336.2172706214287C345.4976198498571 1633.632052634678 88.04948219953542 1338.0471685658945 -132.0512258164307 982.5959879831387C-352.1519338323967 627.1448074003829 -710.9857786267786 -72.533614162552 -417.15877783180093 -369.948396175801C-123.33177703682327 -667.3631781890501 1058.2176699834945 -800.4461462632136 1278.3183779994606 -444.99496568045765C1498.4190860154267 -89.54378509770186 933.1516214398123 1038.80248860818 639.3246206448346 1336.2172706214287 "></path><path d="M1248.03154053578 -415.8572661213659C1460.5425689649892 -72.66302280008438 914.7670859264647 1016.774758709043 631.0720506761415 1303.933858583904C347.3770154258182 1591.0929584587652 98.80639976343878 1305.7006565992497 -113.70462866576986 962.5064132779685C-326.2156570949785 619.3121699566871 -672.6759210343816 -56.23940948338793 -388.98088578405833 -343.39850935824916C-105.28585053373513 -630.5576092331104 1035.5205121065717 -759.0515094426474 1248.03154053578 -415.8572661213659C1460.5425689649892 -72.66302280008438 914.7670859264647 1016.774758709043 631.0720506761415 1303.933858583904 "></path><path d="M1217.7446725545221 -386.7195055271179C1422.666021396973 -55.782199467310875 896.3825198955392 994.7470898450617 622.8194501898702 1271.6505075815348C349.2563804842014 1548.5539253180086 109.56328680976401 1273.3542056677616 -95.35806203268703 942.4168996079543C-300.2794108751383 611.4795935481472 -634.3660939595627 -39.94514376906784 -360.80302425389385 -316.84856150554106C-87.239954548225 -593.7519792420144 1012.8233237120708 -717.6568115869251 1217.7446725545221 -386.7195055271179C1422.666021396973 -55.782199467310875 896.3825198955392 994.7470898450617 622.8194501898702 1271.6505075815348 "></path><path d="M1187.4578045732637 -357.5817449328699C1384.789473828957 -38.90137613453703 877.9979538646135 972.7194209810809 614.566849703599 1239.3671565791665C351.1357455425846 1506.014892177252 120.32017385608935 1241.0077547362735 -77.01149539960443 922.3273859379406C-274.3431646552981 603.6470171396077 -596.0562668847438 -23.650878054747636 -332.6251627237294 -290.29861365283296C-69.19405856271487 -556.9463492509183 990.1261353175698 -676.2621137312028 1187.4578045732637 -357.5817449328699C1384.789473828957 -38.90137613453703 877.9979538646135 972.7194209810809 614.566849703599 1239.3671565791665 "></path><path d="M1157.1710586623178 -328.44398433862193C1346.9130483312542 -22.020552801763415 859.6135099040002 950.6917521171004 606.3143712876404 1207.0838055767977C353.0152326712803 1463.475859036495 131.0771829727272 1208.661303804785 -58.6648066962091 902.2378722679266C-248.4067963651454 595.8144407310681 -557.7463177396124 -7.3566123404273185 -304.4471791232524 -263.74866580012485C-51.14804050689236 -520.1407192598224 967.4290689933814 -634.8674158754804 1157.1710586623178 -328.44398433862193C1346.9130483312542 -22.020552801763415 859.6135099040002 950.6917521171004 606.3143712876404 1207.0838055767977 "></path><path d="M1126.8841296459032 -299.30622374437394C1309.036439728082 -5.139729468989799 841.2288828379185 928.6640832531193 598.0617097662127 1174.8004545744288C354.8945366945072 1420.9368258957384 141.83400898389618 1176.3148528732968 -40.31830109828263 882.1483585979126C-222.47061118046145 587.9818643225285 -519.4365516999499 8.937653373892772 -276.26937862824417 -237.19871794741675C-33.10220555653859 -483.3350892687263 944.7318195637245 -593.4727180197581 1126.8841296459032 -299.30622374437394C1309.036439728082 -5.139729468989799 841.2288828379185 928.6640832531193 598.0617097662127 1174.8004545744288 "></path><path d="M1096.5973532173791 -270.16846315012594C1271.1599837128006 11.741093863783817 822.8444083597271 906.6364143891383 589.8092008326757 1142.5171035720603C356.7739933056246 1378.3977927549818 152.5909875829558 1143.9684019418085 -21.97164291246554 862.0588449278987C-196.53427340788687 580.1492879139887 -481.1266330723966 25.23191908821309 -248.09142554534537 -210.64877009470865C-15.05621801829409 -446.5294592776303 922.0347227219579 -552.0780201640357 1096.5973532173791 -270.16846315012594C1271.1599837128006 11.741093863783817 822.8444083597271 906.6364143891383 589.8092008326757 1142.5171035720603 "></path><path d="M1066.3105157536988 -241.03073307345608C1233.283466662363 28.62188667897931 804.4598728463798 884.6087150075796 581.5566308639827 1110.2337220521133C358.653388881586 1335.858729096647 163.34790514685926 1111.6219204927422 -3.6250457618045857 841.9693007403066C-170.59799667046855 572.3166809878712 -442.8167754799996 41.52615428495517 -219.91353349760277 -184.09885275957868C2.989708484794164 -409.7238598041124 899.3375648450351 -510.6833528258915 1066.3105157536988 -241.03073307345608C1233.283466662363 28.62188667897931 804.4598728463798 884.6087150075796 581.5566308639827 1110.2337220521133 "></path><path d="M1036.0236477724407 -211.89297247920803C1195.4069190943471 45.50271001175315 786.075306815454 862.5810461435985 573.3040303777116 1077.9503710497447C360.5327539399691 1293.3196959558902 174.1047921931846 1079.2754695612537 14.721520871278017 821.8797870702929C-144.66175045062835 564.4841045793316 -404.5069484051807 57.82041999927537 -191.7356719674383 -157.54890490687046C21.03560447030418 -372.91822981301635 876.6403764505342 -469.2886549701692 1036.0236477724407 -211.89297247920803C1195.4069190943471 45.50271001175315 786.075306815454 862.5810461435985 573.3040303777116 1077.9503710497447 "></path><path d="M1005.7367950499713 -182.7552118849601C1157.5303867851203 62.38353334452677 767.6907560433174 840.5533772796175 565.0514451502295 1045.6670200473754C362.41213425714136 1250.7806628151334 184.8616944982989 1046.9290186297656 33.06810276314991 801.7902734002787C-118.72548897199914 556.6515281707921 -366.19710607157276 74.11468571359546 -163.55779517848475 -130.99895705416236C39.081515714603256 -336.11259982192036 853.9432033148223 -427.89395711444683 1005.7367950499713 -182.7552118849601C1157.5303867851203 62.38353334452677 767.6907560433174 840.5533772796175 565.0514451502295 1045.6670200473754 "></path><path d="M975.4499575862912 -153.6174512907121C1119.6538697346828 79.26435667730038 749.3062205299698 818.5257084156367 556.7988751815365 1013.3836690450069C364.2915298331027 1208.2416296743768 195.61861206220237 1014.5825676982772 51.41469991381075 781.7007597302647C-92.78921223458082 548.8189517622523 -327.8872484791758 90.40895142791578 -135.37990313074215 -104.44900920145426C57.12744221769151 -299.30696983082436 831.2460454378997 -386.49925925872446 975.4499575862912 -153.6174512907121C1119.6538697346828 79.26435667730038 749.3062205299698 818.5257084156367 556.7988751815365 1013.3836690450069 "></path><path d="M945.1631048638219 -124.47966017888592C1081.777337425456 96.14521052765213 730.9216697578333 796.498070069234 548.5462899540541 981.1003485602162C366.17091015027484 1165.7026270511983 206.37551436731667 982.236147284367 69.76128180568253 761.6112765778289C-66.85295075595155 540.986405871291 -289.57740614556786 106.70324765981411 -107.20202634178861 -77.89903083116803C75.17335346199059 -262.5013093221502 808.5488723021876 -345.104530885424 945.1631048638219 -124.47966017888592C1081.777337425456 96.14521052765213 730.9216697578333 796.498070069234 548.5462899540541 981.1003485602162 "></path><path d="M914.8762674001418 -95.34189958463793C1043.9008203750184 113.02603386042585 712.537134244486 774.470401205253 540.2937199853609 948.8169975578473C368.05030572623616 1123.1635939104417 217.13243193122003 949.8896963528787 88.10787895634348 741.5217629078152C-40.91667401853323 533.1538294627512 -251.26754855317085 122.99751337413431 -79.02413429404601 -51.34908297845993C93.21927996507884 -225.69567933105418 785.8517144252651 -303.7098330297017 914.8762674001418 -95.34189958463793C1043.9008203750184 113.02603386042585 712.537134244486 774.470401205253 540.2937199853609 948.8169975578473 "></path><path d="M884.5894986010121 -66.20416950796806C1006.0243719891314 129.90682667562135 694.1526673956891 752.4427018236943 532.0412186812187 916.5336160379006C369.92976996674827 1080.624530252107 227.88941815967428 917.5432149038124 106.45454477155499 721.4322187202229C-14.980328616564123 525.3212225366335 -212.95762229622306 139.2917485708765 -50.84617358175262 -24.7991656433299C111.26527513271776 -188.8900798575363 763.154625212893 -262.31516569155747 884.5894986010121 -66.20416950796806C1006.0243719891314 129.90682667562135 694.1526673956891 752.4427018236943 532.0412186812187 916.5336160379006 "></path><path d="M854.3025924727813 -37.066378396141886C968.1477862741431 146.7876805259732 675.7680632177908 730.4150634772914 523.7885800479747 884.2502955531099C371.8090968781587 1038.0855276289285 238.64626705902697 885.1967944899022 124.80107325766517 701.3427355677873C10.955879456303364 517.4886766456721 -174.64783336837684 155.58604480277484 -22.668350198560802 1.750812726956326C129.31113297125523 -152.08441934886213 740.4573986714195 -220.92043731825697 854.3025924727813 -37.066378396141886C968.1477862741431 146.7876805259732 675.7680632177908 730.4150634772914 523.7885800479747 884.2502955531099 "></path><path d="M824.0157588237983 -7.928648319472018C930.2712730384028 163.6684733411687 657.3835315191404 708.3873640957324 515.536013893979 851.966914033163C373.6884962688173 995.5464639705935 249.4031884376276 852.8503130408358 143.14767422302327 681.2531913801952C36.892160008418955 509.65606971955447 -136.33797196128262 171.88027999951692 5.5095456638790665 28.30073006208636C147.35706328904064 -115.27881987534425 717.7602446091942 -179.52576998011278 824.0157588237983 -7.928648319472018C930.2712730384028 163.6684733411687 657.3835315191404 708.3873640957324 515.536013893979 851.966914033163 "></path><path d="M793.7289213601182 21.209112274775975C892.3947559879648 180.54929667394242 638.9989960057931 686.3596952317514 507.28344392528584 819.6835630307942C375.5678918447786 953.007430829837 260.16010600153095 820.5038621093477 161.49427137368411 661.1636777101812C62.82843674583728 501.8234933110148 -98.02811436888555 188.17454571383712 33.68743771162161 54.85067791479446C165.4029897921289 -78.47318988424826 695.0630867322711 -138.13107212439047 793.7289213601182 21.209112274775975C892.3947559879648 180.54929667394242 638.9989960057931 686.3596952317514 507.28344392528584 819.6835630307942 "></path><path d="M763.4420819890893 50.346903386602094C854.5182370301786 197.43015052429416 620.6144585850969 664.3320568853487 499.03087204924407 787.4002425460035C377.4472855133913 910.4684282066582 270.9170216580858 788.1574416954375 179.84086661699644 641.0741945577454C88.76471157590697 493.9909474200533 -59.718258683837234 204.46884194573545 61.86532785201558 81.40065628508069C183.4489143878684 -41.66752937557408 672.3659269479999 -96.73634375108998 763.4420819890893 50.346903386602094C854.5182370301786 197.43015052429416 620.6144585850969 664.3320568853487 499.03087204924407 787.4002425460035 "></path><path d="M733.1552769503357 79.48466398085009C816.6417524046678 214.31097385706778 602.2299554966762 642.3043880213679 490.7783345054777 755.1168915436347C379.3267135142794 867.9293950659016 281.673971646916 755.8109907639491 198.18749619258404 620.9846808877314C114.70102073825205 486.15837101151374 -21.408368666513468 220.76310766005577 90.04325232468494 107.95060413778879C201.4948733158834 -4.861899384478079 649.6688014960039 -55.341645895367606 733.1552769503357 79.48466398085009C816.6417524046678 214.31097385706778 602.2299554966762 642.3043880213679 490.7783345054777 755.1168915436347 "></path><path d="M702.8684280425638 108.62242457509808C778.7652239101383 231.1917971898415 583.8454085392368 620.2767191573869 482.52575309269287 722.8335405412658C381.2060976461488 825.3903619251448 292.4308777667276 723.464539832461 216.53408189915308 600.8951672177175C140.63728603157858 478.32579460297416 16.901477481791744 237.05737337437586 118.22113292833575 134.50055199049694C219.54078837487975 31.943730606617976 626.9716321749893 -13.946948039645292 702.8684280425638 108.62242457509808C778.7652239101383 231.1917971898415 583.8454085392368 620.2767191573869 482.52575309269287 722.8335405412658 "></path><path d="M672.5815753200945 137.76015465176795C740.8886916009116 248.072590005037 565.4608577671003 598.249019775828 474.27316786521067 690.550159021319C383.08547796332095 782.8512982668101 303.18778007184187 691.1180583833944 234.88066379102486 580.8056230301254C166.57354751020785 470.49318767685645 55.21131981539969 253.35160857111805 146.3990097172893 161.05046932562692C237.5866996191789 68.74933008013585 604.2744590392774 27.447719298498896 672.5815753200945 137.76015465176795C740.8886916009116 248.072590005037 565.4608577671003 598.249019775828 474.27316786521067 690.550159021319 "></path><path d="M642.2947302270197 166.89794576359412C703.0121669210794 264.9534438553888 547.0763146243582 576.2213814294253 466.020590267123 658.2668385365284C384.96486590988775 740.3122956436316 313.9446900063508 658.7716379694843 253.22725331229117 560.7161398776896C192.50981661823158 462.6606417858949 93.52116977840217 269.6459048030164 174.57689413563736 187.6004476959132C255.63261849287255 105.55499058880997 581.5772935329602 68.84244767179939 642.2947302270197 166.89794576359412C703.0121669210794 264.9534438553888 547.0763146243582 576.2213814294253 466.020590267123 658.2668385365284 "></path><path d="M612.0078775045505 196.03570635784212C665.1356346118528 281.83426718816247 528.6917638522216 554.1937125654443 457.7680050396409 625.9834875341596C386.84424622706 697.7732625028749 324.70159231146516 626.425187037996 271.573835204163 540.6266262076757C218.44607809686084 454.8280653773554 131.83101211201006 285.9401705173366 202.7547709245909 214.1503955486213C273.6785297371717 142.36062057990603 558.8801203972484 110.23714552752176 612.0078775045505 196.03570635784212C665.1356346118528 281.83426718816247 528.6917638522216 554.1937125654443 457.7680050396409 625.9834875341596 "></path><path d="M581.7210552996594 225.17343643451198C627.2591328202041 298.715060003358 510.3072435976633 532.1660131838853 449.5154503297367 593.7001060142127C388.7236570618104 655.2341988445401 335.45852513415764 594.0787055889297 289.92044761361296 520.5370820200836C244.38237009306823 446.9954584512376 170.14088496319613 302.23440571407866 230.93267823112257 240.70031288375128C291.72447149904895 179.1662200534239 536.1829777791147 151.63181286566595 581.7210552996594 225.17343643451198C627.2591328202041 298.715060003358 510.3072435976633 532.1660131838853 449.5154503297367 593.7001060142127 "></path><path d="M551.4341720596119 254.31119702875998C589.3825699933992 315.5958833361317 491.9226623079485 510.1383443199044 441.2628345846765 561.4167550118439C390.6030068614045 612.6951657037833 346.21539692169387 561.7322546574414 308.2669989879066 500.4475683500697C270.31860105411937 439.162882042698 208.45069677922595 318.52867142839887 259.110524502498 267.2502607364594C309.77035222576995 215.9718500445199 513.4857741258247 193.02651072138826 551.4341720596119 254.31119702875998C589.3825699933992 315.5958833361317 491.9226623079485 510.1383443199044 441.2628345846765 561.4167550118439 "></path><path d="M521.147395631088 283.4489423642189C551.5061139781178 332.47669141011625 473.53818782975725 488.1106601971345 433.0103256511396 529.1333887506861C392.482463472522 570.1561173042377 356.97237552075353 529.385788467164 326.6136571737237 480.35803942126665C296.25493882669394 431.33029037536926 246.7606154067792 334.82292188393006 287.2884775853968 293.8001933303785C327.8163397640144 252.7774647768269 490.78867728405817 234.42119331832157 521.147395631088 283.4489423642189C551.5061139781178 332.47669141011625 473.53818782975725 488.1106601971345 433.0103256511396 529.1333887506861 "></path><path d="M490.8604818734625 312.5867411054396C513.6295206337348 349.35755288986263 455.15357602246445 466.08302948012624 424.7576793885012 496.85007589528993C394.361782754538 527.6171223104536 367.72921679071163 497.03937568264837 344.9601780304393 460.2685638982254C322.1911392701669 423.4977521138024 285.0703967052309 351.1172257452229 315.46629333919407 320.35017933005923C345.8621899731573 289.58313291489554 468.09144311319017 275.81592932101654 490.8604818734625 312.5867411054396C513.6295206337348 349.35755288986263 455.15357602246445 466.08302948012624 424.7576793885012 496.85007589528993 "></path><path d="M460.57366729796587 341.7244940702931C475.7530264714808 366.2383685932417 436.7690633973005 444.05535298675085 416.5051323079917 464.56671726352664C396.2412012186829 485.07808154030243 378.48615724279864 464.6929171217656 363.30679806928373 440.1790425988169C348.1274388957688 415.6651680758682 323.38027718581145 367.4114838301486 343.64420827512026 346.9001195533728C363.9081393644291 326.388755276597 445.39430812445096 317.2106195473444 460.57366729796587 341.7244940702931C475.7530264714808 366.2383685932417 436.7690633973005 444.05535298675085 416.5051323079917 464.56671726352664 "></path><path d="M430.28683364898296 370.86224703514654C437.8765132357404 383.11918429662086 418.3845316986502 422.0276764933754 408.2525661539959 432.28335863176335C398.12060060934147 442.53904077015125 389.2430786213993 432.3464585608828 381.6533990346419 420.0895212994085C374.0637194478844 407.8325840379341 361.6901385929057 383.7057419150743 371.82210413756013 373.45005977668643C381.95406968221454 363.19437763829853 422.6971540622255 358.60530977367216 430.28683364898296 370.86224703514654C437.8765132357404 383.11918429662086 418.3845316986502 422.0276764933754 408.2525661539959 432.28335863176335 "></path></g></svg>